<svg viewBox="0 0 400 400" xmlns="http://www.w3.org/2000/svg" height="400" width="400"><path d="M187.528 150.164a0.952 1.586 4.439 1 0 0.244 -3.162 0.952 1.586 4.439 1 0 -0.244 3.16Z" fill="#1c2733" stroke-width="2"></path><path d="M201.894 150.816a0.952 1.666 4.439 1 0 0.258 -3.322 0.952 1.666 4.439 1 0 -0.26 3.32Z" fill="#1c2733" stroke-width="2"></path><path d="M198.01 145.212c-0.556 1.904 2.572 -3.92 7.06 1.032 0.4 0.436 2.182 -0.08 1.666 -1.626s-6.984 -5.356 -8.726 0.594Z" fill="#1c2733" stroke-width="2"></path><path d="M190.554 145.33c0.512 1.906 -2.428 -3.896 -7.098 0.834 -0.434 0.438 -2.142 -0.12 -1.588 -1.626s7.088 -5.154 8.686 0.792Z" fill="#1c2733" stroke-width="2"></path><path d="M75.14 200.54s-0.832 -7.338 5.632 -8.766c0 0 -1.77 -13.102 4.164 -23.2 5.648 -9.612 13.72 -10.788 20.704 -10.668a0.4 0.4 0 0 0 0.2 -0.754c-3.082 -1.336 -10.384 -3.356 -20.664 0.714 -13.872 5.494 -18.874 20.384 -17.252 27.722 2.304 10.428 7.216 14.952 7.216 14.952Z" fill="#1c2733" stroke-width="2"></path><path d="M113.056 159.846c-9.744 -2.386 -17.4 -1.068 -22.726 3.768 -8.682 7.898 -8.8 22.846 -8.4 29.35a7.766 7.766 0 0 0 -6.028 7.972c0 5.82 5.178 9.936 9.916 7.258a16.364 16.364 0 0 0 7.258 7.218 2.378 2.378 0 0 0 2.26 1.706h4.522a2.42 2.42 0 0 0 0 -4.84c-4.634 0 -5.2 -0.22 -6.188 0.676a13.386 13.386 0 0 1 -5.948 -6.346c4.096 -4.89 1.472 -13.4 -4.562 -13.724 -0.356 -6.306 -0.228 -20.93 7.972 -28.4 5 -4.556 12.308 -5.768 21.656 -3.49a0.6 0.6 0 0 0 0.268 -1.148Z" fill="#ffb306" stroke-width="2"></path><path d="M323.698 198.438c0.118 -7.258 -0.51 -34.414 -16.58 -40.336 -0.766 -0.284 -1.122 0.928 -0.4 1.11 15.032 5.474 15.864 31.848 15.786 39.066a7.24 7.24 0 0 0 -5.514 12.374c-1.864 5 -4.084 7.696 -6.742 8.172a1.652 1.652 0 0 0 -1.388 -0.8h-6.148a1.706 1.706 0 1 0 0 3.4h6.148a1.71 1.71 0 0 0 1.388 -0.752c4.244 -0.516 6.822 -4.958 8.328 -8.846a7.2 7.2 0 0 0 10.828 -6.266 7.4 7.4 0 0 0 -5.706 -7.122Z" fill="#ffb306" stroke-width="2"></path><path d="M335.278 341.534c-0.524 -0.104 1.428 -0.552 -30.538 8.17 -0.04 -17.37 -0.482 -65.984 -4.642 -68.296 -3.784 -2.104 -79.498 -7.378 -81.662 0.516 -1.88 6.862 12.094 58.012 13.842 64.568l70.676 5.552 0.08 4.8c-0.04 -1 -17.926 -1.752 -19.712 -1.904 -12.728 -1.08 -25.458 -2.54 -38.2 -3.292 -0.752 -0.044 -10.708 -0.516 -10.708 -0.556 0 -5.064 -0.786 -7.084 -1 0.952 0 0.25 -0.052 0.2 0.2 0.238 18.566 3.344 49.916 4.962 65.282 5.316a17.344 17.344 0 0 0 4.918 0.078l38.67 -12.176a0.2 0.2 0 0 0 0.04 -0.4 52.474 52.474 0 0 0 -7.246 -3.566Zm-101.612 3.292c-4.442 -16.182 -15.182 -57.174 -13.524 -62.386 0.038 -0.12 0.316 -0.438 1.19 -0.8 11.182 -4.566 74.444 -0.6 77.854 1.31 3.312 2.924 3.932 62.944 3.69 67.304Z" fill="#1c2733" stroke-width="2"></path><path d="M388.82 296.32c-2.62 -17.8 -11.42 -31.566 -21.456 -39.502a61.296 61.296 0 0 0 -17.054 -9.2 67.612 67.612 0 0 0 -25.662 -5.076c-3.132 0.088 -3.312 -0.124 -4.242 -3.132a47.656 47.656 0 0 1 -1.864 -10.312 54.348 54.348 0 0 0 -1.072 -9.2c-0.238 -0.238 -0.356 2.34 -0.316 8.29a45.43 45.43 0 0 0 1.15 10.986c0.388 1.588 0.638 3.96 2.062 5.036 1.67 1.262 5.116 0.436 7.098 0.6 -2.34 4.48 -10.71 11.312 -22.248 9.4a15.052 15.052 0 0 1 -11.78 -9.518 9.018 9.018 0 0 0 4.164 -1.308c1.582 -1.79 0.032 -6.782 -0.356 -8.924 -0.6 -3.33 -1.066 -3.688 -1.35 -0.278 -0.2 2.34 0.634 6.224 -1.19 7.376a19.672 19.672 0 0 1 -5.472 0.952 149.718 149.718 0 0 0 -21.972 5.434c-18.976 6.6 -21.9 12 -21.656 12.414 0.574 1.148 -2.6 -0.77 24.868 -10.154 4.2 -1.434 8.4 -2.818 12.652 -3.966 0.2 -0.054 7.73 -2.742 8.526 -1.15 3.184 7.78 9.368 11.264 17.61 11.264 10.748 0 18.126 -6.822 20.108 -11.342a70.2 70.2 0 0 1 17.372 4.482c20.264 7.624 33.232 20.6 37.916 43.388 2.618 12.732 4.612 31.124 -3.53 42.438 -7.36 10.228 -21.976 11.514 -33 7.576 -7.856 -2.8 -14.434 -8.414 -22.448 -10.788a16.152 16.152 0 0 0 -9.122 -0.636c-0.326 0.326 3.324 0.088 7.774 1.626a49.232 49.232 0 0 1 9.36 4.68c11.294 6.958 24.272 13.2 37.678 8.25 20.15 -7.464 20.032 -32.254 17.452 -49.706Z" fill="#1c2733" stroke-width="2"></path><path d="M337.34 304.054a50.854 50.854 0 0 0 -14.476 1.826c-16.222 4.3 -16.558 10.472 -16.102 10.826 1.212 0.94 -2.032 -1.704 12.096 -6.266a78.326 78.326 0 0 1 27.764 -3.094c3.354 0.156 7.636 0.526 3.688 -1.07a36.038 36.038 0 0 0 -11.146 -2.142c-0.2 -2.44 1.46 -9.23 -1.942 -19.552a0.904 0.904 0 0 0 -1.706 0.6 50 50 0 0 1 1.824 18.872Z" fill="#1c2733" stroke-width="2"></path><path d="M193.6 148.86c1.286 -2.294 0.94 7.212 -0.4 9.6 -1.256 2.264 -0.966 -7.146 0.4 -9.6Z" fill="#1c2733" stroke-width="2"></path><path d="M219.308 143.348c0 -21.912 0.218 -22.696 -0.752 -25.462a13.338 13.338 0 0 0 -8.8 -7.694c-4.8 -1.538 -9.524 -1.246 -23.082 -1.27 -3.826 0 -6.132 0.218 -9 2.776 -5.326 4.748 -5.65 10.868 -5.65 17.49v14.2a7.74 7.74 0 0 0 -6.06 7.212 7.824 7.824 0 0 0 6.584 7.376 1.588 1.588 0 0 0 1.864 -1.546v-11.576a1.616 1.616 0 0 0 -1.228 -1.546c0.044 -16.028 -0.346 -20.892 1.546 -25.382a12.974 12.974 0 0 1 6.9 -7.18c2.026 -0.692 3.134 -0.538 16.5 -0.516a37.07 37.07 0 0 1 11.264 1.19 12.2 12.2 0 0 1 8.012 6.942c0.944 2.6 0.714 3.934 0.714 24.946a1.62 1.62 0 0 0 -1.152 1.508V156.4a1.56 1.56 0 0 0 1.826 1.548 11.8 11.8 0 0 1 -5.712 8.566 24.874 24.874 0 0 1 -11.978 2.658 2.902 2.902 0 0 0 -2.618 -1.666h-4.64a2.896 2.896 0 0 0 0 5.79h4.64a2.922 2.922 0 0 0 2.658 -1.746 27.424 27.424 0 0 0 13.168 -3.014 14.038 14.038 0 0 0 6.94 -11.502c6.256 -3.18 5.332 -11.806 -1.944 -13.686Z" fill="#ffb306" stroke-width="2"></path><path d="M193.648 164.012c-0.704 -1.512 2.6 2.87 6 -1.984a1.016 1.016 0 0 1 1.586 1.11c-0.264 1.346 -5.374 5.618 -7.586 0.874Z" fill="#1c2733" stroke-width="2"></path><path d="M294.784 226.12c-7.476 -2.66 -10.914 -9.71 -11.66 -17.57 -0.544 -5.732 -0.652 -13.2 -1.19 -17.332 -1.19 -9.13 -2.294 8.8 -2.022 16.856 0.308 9.218 4.544 17.894 13.2 20.822a18.86 18.86 0 0 0 17.372 -2.418c1.27 -1 1.824 -1.746 1.746 -1.984 -0.43 -0.718 -7.922 5.014 -17.446 1.626Z" fill="#1c2733" stroke-width="2"></path><path d="M284.868 184c0.834 1.23 1.548 1.666 1.746 1.586 0.238 -0.118 -0.068 -0.704 -0.476 -1.942 -1.354 -4.12 -1.622 -9.75 0.912 -13.2a14.82 14.82 0 0 1 7.616 -5.434 15.582 15.582 0 0 1 10.074 0.636c2.902 0.884 7.844 2.64 10.986 2.38a19.484 19.484 0 0 0 -1.746 -2.578c-6.076 -1.412 -11.942 -5.668 -19.076 -4.086a17.168 17.168 0 0 0 -10.074 6.702c-3.346 4.64 -2.584 12.066 0.038 15.936Z" fill="#1c2733" stroke-width="2"></path><path d="M321.6 164.884c-0.2 -0.156 -0.514 0.282 -1.548 0.674a7.776 7.776 0 0 1 -2.816 0.318 17.42 17.42 0 0 1 1.072 1.864c2.856 -0.65 3.678 -2.552 3.292 -2.856Z" fill="#1c2733" stroke-width="2"></path><path d="M296.33 173.252c-4.738 2.538 -6.678 7.63 -3.926 13.326 1.158 2.4 1.648 2.466 1.348 -0.118a21.146 21.146 0 0 1 -0.158 -5.116c0.472 -3.866 5.156 -7.454 11.78 -5.6 4.34 1.218 9.094 3.828 14.714 3.966a27.028 27.028 0 0 0 -0.754 -2.976c-8.064 -1.334 -15.164 -7.68 -23.004 -3.482Z" fill="#1c2733" stroke-width="2"></path><path d="M330 175.276c-0.2 -0.16 -0.6 0.2 -1.548 0.712a13.656 13.656 0 0 1 -6.544 1.112c0.278 0.872 0.436 1.744 0.634 2.618a11.074 11.074 0 0 0 6.506 -2.5c0.984 -1.042 1.074 -1.818 0.952 -1.942Z" fill="#1c2733" stroke-width="2"></path><path d="M307.912 186.262c-6.262 2.3 -3.756 6.458 -2.974 6.068 0.278 -0.04 0.2 -0.516 0.278 -1.072 0.118 -0.6 0.356 -0.952 1.388 -1.546 3.278 -1.64 6.144 -0.764 9.2 1.07 1 0.6 5.422 3.474 6.068 3.69 -0.038 -1.19 -0.118 -2.5 -0.2 -3.928 -4.326 -2.944 -8.672 -6.144 -13.76 -4.282Z" fill="#1c2733" stroke-width="2"></path><path d="M330.44 193.162a7.128 7.128 0 0 1 -6.266 -1c0.284 4.266 -0.058 3.038 0.276 3.372a6.518 6.518 0 0 0 6.506 -1.15c1.16 -1.398 0.942 -1.726 -0.516 -1.222Z" fill="#1c2733" stroke-width="2"></path><path d="M304.938 199.35c0.4 0.512 2.36 0.084 1.904 -1.626s-7.282 -6.37 -9.56 0c-0.734 2.054 3.184 -4.086 7.656 1.626Z" fill="#1c2733" stroke-width="2"></path><path d="M284.116 196.93c5.8 -4.374 8.014 2.498 7.812 0.358 -0.626 -6.664 -8.328 -3.928 -9.24 -2.42s0.912 2.454 1.428 2.062Z" fill="#1c2733" stroke-width="2"></path><path d="M294.07 214.182a10.714 10.714 0 0 0 -1.904 -1.348c1.382 -3.452 1.17 -8.742 -0.356 -7.02a25.922 25.922 0 0 0 -2.578 6.782c-1.308 3.054 6.568 3.538 4.838 1.586Z" fill="#1c2733" stroke-width="2"></path><path d="M303.588 201.412c-0.528 -0.118 -0.756 0.116 -3.688 0.556 -2.716 0.4 -2.45 1.456 -0.118 1.586 3.18 0.176 4.876 -2.016 3.806 -2.142Z" fill="#1c2733" stroke-width="2"></path><path d="M289.708 200.856c-0.8 -0.84 -5.876 -2.032 -5.2 -0.674a4.682 4.682 0 0 0 3.41 1.548c1.482 0.07 2.236 -0.408 1.79 -0.874Z" fill="#1c2733" stroke-width="2"></path><path d="M299.86 218.308a1.018 1.018 0 0 0 -1.586 -1.112c-3.26 4.966 -6.686 0.468 -5.988 1.984 2.196 4.774 7.298 0.516 7.574 -0.872Z" fill="#1c2733" stroke-width="2"></path><path d="M249.174 69.26c-20.11 8.8 -45.156 19.844 -68.178 13.564a20.584 20.584 0 0 0 5.038 -13.92c-0.368 -8.8 -6.624 -19.942 -16.778 -19a15.422 15.422 0 0 0 -13.524 11.7c-2.5 10.83 7.728 18.916 19.276 22.766C157.24 99.6 127.706 104.97 105.322 100c-6.21 -1.38 -9.752 -3.038 -10.272 -2.934 -0.4 0.08 3.154 2.092 8.846 3.926 24.656 7.946 60.088 -0.954 74.68 -15.548 12.104 6.052 39.06 0.286 57.668 -8.448 0.824 -0.386 9.8 -4.722 12.494 -6.108a36.334 36.334 0 0 0 8.962 -5.71c0.08 -0.36 -2.362 1.384 -8.526 4.082ZM162.2 56.6c5.682 -5.264 13.8 -3.532 17.65 2.976a18.272 18.272 0 0 1 1.308 17.094 22.638 22.638 0 0 1 -3.528 5.2C157.664 75.47 155.726 62.6 162.2 56.6Z" fill="#1c2733" stroke-width="2"></path><path d="M265.316 60.774s16.182 -16.774 38.432 -17.054l2.142 0.316 -1.904 0.2C292.6 46.852 272.534 67.8 272.534 67.8l-0.872 -8.29Z" fill="#ffb306" stroke-width="2"></path><path d="M307.674 42.6c-33.254 -3.022 -48.576 9.636 -48.784 9.678l6 9.478 6.742 -1.348v7.734l6.068 5.87c5.414 -12.91 16.4 -25.832 30.142 -29.666l4.84 -1.348Zm-41.922 17.174 -4.442 -7.02c10.312 -7.298 27.564 -8.528 37.836 -8.568 -11.938 3.768 -25.502 13.288 -27 14.318Zm11.304 11.144L273.4 67.4v-7.618c2.262 -1.586 14.754 -10.074 25.702 -13.722 -13.044 7.258 -20.102 20.74 -22.046 24.866Z" fill="#1c2733" stroke-width="2"></path><path d="M51.224 199c1.628 -5.71 3.164 -14.2 0.04 -19.236a20.644 20.644 0 0 0 -19.076 -9.8c-15.23 1.024 -23.05 15 -21.854 29.152 1.584 18.746 23.6 21.282 34.624 9.716l9.44 4.2c-1.23 -5.91 -3.174 -14.032 -3.174 -14.032Zm-22.962 2.776a14.566 14.566 0 0 1 -7.972 -0.238c-1.27 -0.752 0.276 -1.902 3.41 -2.538a14.55 14.55 0 0 1 7.972 0.238c1.27 0.746 -0.238 1.892 -3.41 2.53Zm2.656 -6.346a30.786 30.786 0 0 1 -11.66 -0.238c-1.862 -0.76 0.4 -1.902 5 -2.538a30.87 30.87 0 0 1 11.66 0.238c1.86 0.754 -0.398 1.896 -5 2.53ZM19.1 188.164c-2.698 -0.752 0.554 -1.9 7.336 -2.538 6.744 -0.632 14.442 -0.534 17.134 0.238 6.15 1.764 -17.728 4.184 -24.47 2.3Z" fill="#ffb306" stroke-width="2"></path><path d="M256.828 112.056c-12.334 -2.306 -28.618 1.388 -28.2 18.322 0.224 9.084 7.932 15.548 7.694 16.142 0 0 -2.062 6.148 -4.918 13.248 0 0 19.6 -10.4 20.426 -10.312 6.66 0.614 15.972 -0.684 20.782 -5.83a12.862 12.862 0 0 0 3.054 -9.282 22.044 22.044 0 0 0 -18.838 -22.288Zm-12.968 22.05a9.17 9.17 0 0 1 -6.306 -0.238c-1 -0.752 0.2 -1.902 2.696 -2.538a9.2 9.2 0 0 1 6.306 0.238c0.992 0.754 -0.236 1.908 -2.696 2.538Zm12.572 -6.662a103.31 103.31 0 0 1 -21.456 -0.238c-3.412 -0.754 0.714 -1.904 9.16 -2.538a103.2 103.2 0 0 1 21.458 0.238c3.406 0.752 -0.714 1.904 -9.162 2.538Z" fill="#ffb306" stroke-width="2"></path><path d="M361.89 158.458c-13.23 -0.946 -25.512 10.304 -22.012 28.954 0.284 1.506 2.302 5.512 1.786 6.822 0 0 -4.68 12.69 -6.704 18.2l13.366 -8.726c3.728 2.222 14.122 6.036 21.894 3.134 9.958 -3.72 17.162 -13.6 15.746 -24.472 -1.82 -13.97 -12.328 -23.07 -24.076 -23.912Zm-5.234 16.46a51.016 51.016 0 0 1 15.07 0.238c2.38 0.754 -0.514 1.906 -6.424 2.538a50.96 50.96 0 0 1 -15.072 -0.238c-2.38 -0.754 0.516 -1.906 6.426 -2.538Zm-1.984 8.528a9.886 9.886 0 0 1 6.544 0.238c1.032 0.752 -0.2 1.898 -2.816 2.538a9.926 9.926 0 0 1 -6.544 -0.238c-1.03 -0.754 0.238 -1.904 2.816 -2.538Zm12.612 9.082a44.764 44.764 0 0 1 -14.2 -0.238c-2.22 -0.754 0.476 -1.904 6.068 -2.538a45.496 45.496 0 0 1 14.2 0.238c2.26 0.758 -0.472 1.884 -6.068 2.538Z" fill="#ffb306" stroke-width="2"></path><path d="M214.668 264.434c-5.562 -2.41 -23.32 -2.896 -42.318 -2.578a46.268 46.268 0 0 0 -15.508 -18.6 53.38 53.38 0 0 0 -30.38 -9.756c-7.626 -0.15 -16.4 2.75 -17.134 2.498 -0.566 -0.2 -0.316 -1.534 -0.714 -5.314 7.832 -2.506 11.882 -13.412 11.622 -18.086a38.2 38.2 0 0 0 2.578 -22.052c-0.642 -2.862 -1.152 -3.012 -1.35 -0.158a61.31 61.31 0 0 1 -3.212 18c-1.982 -0.318 -23.104 -3.8 -26.018 0.634 -1.244 1.898 0.352 2.908 1.626 2.738 1.586 -0.212 6.862 -1.112 8.528 0.476a10.338 10.338 0 0 1 7.654 0.872c2.906 2.128 0.2 7.814 -4.244 7.814a4.946 4.946 0 0 1 -4.718 -3.122c-1.122 0.748 -8.258 2.048 -8.846 -2.022a9.066 9.066 0 0 1 -1.784 -1 15.498 15.498 0 0 0 6.068 13.92 14.292 14.292 0 0 0 10.748 2.3 34.4 34.4 0 0 0 -0.278 3.73c-0.12 3.474 2.068 3.962 5.474 3.33a21.504 21.504 0 0 0 4.6 -0.872c-3.8 5.672 -10 11.29 -19.354 10.668 -6.308 -0.418 -13.684 -3.926 -16.262 -10.668 0.8 -0.158 1.586 -0.28 2.38 -0.436a25.828 25.828 0 0 0 3.888 -0.714c2.024 -0.748 1.458 -2.776 1.388 -4.522a73.93 73.93 0 0 0 -3.65 -20.028c0.4 7.536 2.42 15 1.706 22.488 0 0.21 -3.77 0.486 -11.066 1.824 -21.366 3.916 -41.512 14.4 -53.938 30.936 -18.422 24.524 -14.4 55.298 1.864 68.216 15.692 12.46 36.266 9.764 55.128 2.816 9.954 -3.664 31.8 -13.112 11.146 -5.868 -19.472 6.826 -42.166 14.524 -61.278 2.26 -11.98 -7.69 -16.368 -21.774 -15.428 -35.498 2.264 -33.024 32.616 -54.788 66.116 -61.156 2.748 7.684 11.334 12.136 19.474 12.136 8.09 0 15.022 -4.4 20.186 -12.772 0.516 -0.832 6.624 -0.238 7.616 -0.2 16.3 0.664 30.574 8.956 41.088 21.14 1.234 1.428 2.858 3.6 3.174 3.966 -25.9 0.476 -53.782 2.536 -56.558 3.848 -5.2 2.454 -5.71 54.97 -5.75 73.65l-18 -4.324c-0.818 -0.18 -0.716 -0.312 -9.042 3.69a0.462 0.462 0 0 0 0.078 0.872c30.974 8.92 27.436 8.262 28.8 8.884 12.018 -1.07 38.432 -1.42 62.15 -3.57 4.106 -0.372 21.348 -2 25.342 -2.656 -0.622 -5.226 -0.552 -9.86 -1.268 -1.27 -18.542 0.494 -68.344 4.4 -86.144 6.782l0.118 -5.87 88.484 -5.988c2.372 -7.114 19.876 -62.41 17.412 -69.6a4.022 4.022 0 0 0 -2.194 -1.788Zm-16.618 69.724c-32.164 2.19 -87.096 6.106 -87.096 5.552 -0.638 -8.624 0.498 -69.946 4.442 -72.302 5.424 -2.586 86.686 -6.338 98.52 -1.27 1 0.428 1.11 0.714 1.11 0.754 2.022 5.592 -11.384 49.894 -16.976 67.266Z" fill="#1c2733" stroke-width="2"></path><path d="M98.938 197.6c0.514 0.04 0.99 -0.634 1.07 -1.546 0.078 -0.874 -0.318 -1.626 -0.832 -1.666 -1.282 -0.094 -1.494 3.12 -0.238 3.212Z" fill="#1c2733" stroke-width="2"></path><path d="M102.706 191.576c-1.6 -5.984 -8.188 -2.308 -8.766 -0.8s1.2 2.066 1.626 1.626c4.68 -4.754 7.65 1.078 7.14 -0.826Z" fill="#1c2733" stroke-width="2"></path><path d="M49.678 305.2c6.11 -0.356 23.24 -2.618 38.472 -3.214 7.574 -0.296 13.2 -0.454 16.3 -0.6 9.888 -0.45 -13.416 -5.638 -45.174 0.078a79.88 79.88 0 0 1 -0.556 -16.816 0.894 0.894 0 1 0 -1.784 -0.118 81.2 81.2 0 0 0 0.6 17.292c-6.242 1.318 -13.95 3.738 -7.858 3.378Z" fill="#1c2733" stroke-width="2"></path><path d="M112.502 196.494c-0.08 0.912 0.316 1.706 0.832 1.744 0.556 0.042 1.032 -0.674 1.11 -1.586s-0.316 -1.704 -0.832 -1.744 -1.032 0.674 -1.11 1.586Z" fill="#1c2733" stroke-width="2"></path><path d="M117.3 191.1c-0.516 -1.546 -7.018 -5.4 -8.764 0.6 -0.556 1.904 2.616 -3.926 7.138 1.032 0.358 0.43 2.142 -0.086 1.626 -1.632Z" fill="#1c2733" stroke-width="2"></path><path d="M104.648 202.4c-0.476 0.118 -1.03 1.94 0.16 2.062 1.15 0.116 4.382 -0.956 4.6 -2.062a30.546 30.546 0 0 0 -2.102 -6.744c-0.834 0.676 0.436 6.148 0.238 6.346a23.124 23.124 0 0 1 -2.896 0.398Z" fill="#1c2733" stroke-width="2"></path><path d="M110.24 215.332a0.924 0.924 0 0 0 -1.466 -0.99c-2.958 4.518 -6.114 0.438 -5.474 1.824 2.004 4.332 6.7 0.434 6.94 -0.834Z" fill="#1c2733" stroke-width="2"></path><path d="M87.078 192.844s-0.4 -8.822 6.782 -10.47 31.412 6.782 32.642 -2.062 -6.2 -15.852 -11.938 -18.086c-7.106 -2.76 -23.2 -3.726 -27.564 10.074 -4.2 13.288 -3.054 19.078 -3.054 19.078a10.266 10.266 0 0 1 3.132 1.466Zm18.6 -13.96c3.656 -0.698 12.696 1.022 14.476 -2.538a4.83 4.83 0 0 0 -0.436 -4.72c-0.764 -1.252 0.086 -1.24 0.872 -0.872 3.976 1.862 4.098 9.474 -3.014 10.866 -5.842 1.144 -16.554 -1.846 -11.896 -2.736Z" fill="#1c2733" stroke-width="2"></path><path d="M258.216 208.75c-11.278 -10.4 -33.678 -16.516 -49.218 -18.84 -0.6 -0.092 -1.18 -0.09 -1.19 -0.556 -0.12 -5.04 -0.874 -10.034 -1.27 -15.07 -1.518 2.25 -1.546 5.4 -1.546 11.938 0 1.666 -0.366 3.774 0.714 5.2a4.728 4.728 0 0 0 3.252 1.586c1.702 0.256 3.292 0.6 4.958 0.952a27.09 27.09 0 0 1 -17.294 6.742c-8.05 0 -13 -2.856 -18.838 -8.4 0.878 -0.086 2.34 -0.276 2.856 -0.4a30.082 30.082 0 0 0 6.622 -1.4 4.084 4.084 0 0 0 2.048 -3.43c0.02 -0.148 0.352 -10.544 0.356 -10.924 0 -0.684 0.042 -0.572 0.296 -0.5a18.912 18.912 0 0 0 11.102 -0.018c2.534 -0.886 3.492 -2.102 3.452 -2.26 -0.04 -0.318 -1.026 0.342 -3.412 0.872a19.326 19.326 0 0 1 -9.716 -0.674c-13.562 -4.32 -11.988 -25.24 -11.462 -40.454 15.506 1.868 22.388 -2.49 30.022 -0.476 2.104 0.554 3.532 3.556 4.364 6.384a0.626 0.626 0 0 0 1.23 -0.158l0.4 -20.108c0.04 -1.11 -0.916 -1.662 -1.824 -2.222 -8.2 -5.038 -31.666 -5.8 -34.824 -2.3 -3.646 4.054 -4.57 16.134 -2.696 18 0.828 0.662 -4.66 33.8 10.034 42.716 0.334 0.2 0.028 1.328 -0.754 12.494 -0.064 0.912 -7.336 1.588 -8.09 1.704A111.868 111.868 0 0 0 157.4 193.916a74.954 74.954 0 0 0 -23.162 12.414c-3.668 3.15 -3.688 3.848 0.436 1.308 13.426 -8.268 25.964 -11.942 41 -14.952 6.464 6.346 11.978 9.8 21.02 9.8a28 28 0 0 0 19.316 -8.09c18.716 4.258 29.668 8.636 41.2 15.23 3.21 1.822 3.854 1.75 1.006 -0.876ZM180.322 117.964c0.318 -2.492 1.84 -3.438 4.324 -3.49 1.956 -0.04 5.8 0.344 7.97 0.516 11.298 0.896 12.888 2.618 -5.83 1.388 -1.826 -0.12 -3.6 -0.238 -4.322 0.436 -0.97 0.756 -1.132 5.188 -1.15 6.426 -0.044 3.052 -1.46 -1.6 -0.992 -5.276Z" fill="#1c2733" stroke-width="2"></path><path d="M256 219.22c-30.274 -11.706 -112.722 -7.104 -117.2 -2.3 -2.66 2.852 1.508 16.578 1.508 16.578 20.544 1.546 32.516 22.61 34.346 25.858 1.344 2.384 64.966 0.556 64.966 0.556a19.582 19.582 0 0 1 12.8 -8.766l5.036 -29.27a2.442 2.442 0 0 0 -1.456 -2.656Zm-8.4 6.504c-14.354 -1.63 -28.788 -3.184 -43.112 -5 -2.294 -0.29 -2.22 -0.748 0.158 -1.308 7.698 -1.81 15.866 -0.954 23.56 0.318 6.464 1.068 14 1.912 19.948 4.8 2.288 1.114 1.814 1.466 -0.566 1.19Z" fill="#1c2733" stroke-width="2"></path></svg>