<svg xmlns="http://www.w3.org/2000/svg" width="512" height="512"><path d="M321.488 324.465c57.55-1.984 91.287-27.783 91.287-71.442 0-71.442-79.38-111.132-232.186-117.085h-11.907v85.333l55.566 3.97v-31.753c79.38 5.954 134.946 27.783 134.946 55.566 0 19.845-25.799 23.814-47.628 23.814-37.706 0-61.52-1.984-89.302-3.969-11.907-1.984-25.799-1.984-41.675-3.969h-11.907v172.652C103.194 405.83 57.55 336.372 57.55 258.977c0-109.148 89.303-198.45 198.45-198.45 109.147 0 198.45 89.302 198.45 198.45 0 97.24-69.458 176.62-158.76 194.48v57.551C418.729 491.163 512 385.985 512 256.992c0-140.9-115.1-256-256-256s-256 115.1-256 256c0 130.977 97.24 238.14 224.248 254.016V322.481c13.892 1.984 39.69 3.969 97.24 1.984" fill="#A0A5AA"/></svg>